<svg aria-hidden="true" style="position: absolute; width: 0; height: 0; overflow: hidden;" version="1.1"
    xmlns="http://www.w3.org/2000/svg"
    xmlns:xlink="http://www.w3.org/1999/xlink">
    <defs>
        <symbol id="icon-Storefront" viewBox="0 0 32 32">
            <path fill="#a259ff" style="fill: var(--color1, #a259ff)" d="M6 12.45v0c-0.552 0-1 0.448-1 1v12.55c0 1.105 0.895 2 2 2h18c1.105 0 2-0.895 2-2v-12.55c0-0.552-0.448-1-1-1s-1 0.448-1 1v12.55h-18v-12.55c0-0.552-0.448-1-1-1zM3 5v0c0 0.552 0.448 1 1 1h24c0.552 0 1-0.448 1-1s-0.448-1-1-1h-24c-0.552 0-1 0.448-1 1z"></path>
            <path fill="#a259ff" style="fill: var(--color1, #a259ff)" d="M4 7c0.552 0 1 0.448 1 1v0 2c0 1.657 1.343 3 3 3s3-1.343 3-3v0-2c0-0.552 0.448-1 1-1s1 0.448 1 1v0 2c0 2.761-2.239 5-5 5s-5-2.239-5-5v0-2c0-0.552 0.448-1 1-1v0z"></path>
            <path fill="#a259ff" style="fill: var(--color1, #a259ff)" d="M12 7c0.552 0 1 0.448 1 1v0 2c0 1.657 1.343 3 3 3s3-1.343 3-3v0-2c0-0.552 0.448-1 1-1s1 0.448 1 1v0 2c0 2.761-2.239 5-5 5s-5-2.239-5-5v0-2c0-0.552 0.448-1 1-1v0z"></path>
            <path fill="#a259ff" style="fill: var(--color1, #a259ff)" d="M20 7c0.552 0 1 0.448 1 1v0 2c0 1.657 1.343 3 3 3s3-1.343 3-3v0-2c0-0.552 0.448-1 1-1s1 0.448 1 1v0 2c0 2.761-2.239 5-5 5s-5-2.239-5-5v0-2c0-0.552 0.448-1 1-1v0z"></path>
        </symbol>
        <symbol id="icon-NFT-Marketplace" viewBox="0 0 305 32">
            <path fill="#fff" style="fill: var(--color2, #fff)" d="M11.398 22.168h0.603v-21.254h4.425v23.467h-8.649l-2.749-21.254h-0.603v21.254h-4.425v-23.467h8.649l2.749 21.254zM21.432 0.914h15.019v4.224h-10.594v5.364h10.392v4.224h-10.392v9.655h-4.425v-23.467zM40.818 0.914h16.896v4.224h-6.235v19.243h-4.424v-19.243h-6.235v-4.224zM80.8 0.914h7.778l1.341 17.634v3.419h0.805v-3.419l1.341-17.634h7.778v23.467h-4.023v-15.689l0.402-5.364h-0.805l-1.743 21.053h-6.638l-1.81-21.053h-0.806l0.402 5.364v15.689h-4.023v-23.467zM113.966 21.967c-0.448 1.050-1.074 1.798-1.879 2.246-0.805 0.424-1.743 0.637-2.814 0.637-1.006 0-1.957-0.19-2.85-0.57-0.911-0.406-1.682-0.972-2.309-1.67l-0.005-0.006c-0.675-0.757-1.22-1.647-1.588-2.624l-0.019-0.058c-0.381-1.051-0.571-2.246-0.571-3.587v-0.536c0-1.32 0.19-2.504 0.57-3.554 0.381-1.051 0.894-1.944 1.544-2.682 0.648-0.738 1.396-1.297 2.245-1.676 0.806-0.381 1.751-0.604 2.748-0.604 0.012 0 0.024 0 0.036 0h-0.002c1.186 0 2.135 0.201 2.85 0.603 0.738 0.402 1.32 1.027 1.743 1.877h0.605v-2.011h4.224v11.599c0 0.67 0.3 1.006 0.904 1.006h0.638v4.023h-2.885c-0.759 0-1.385-0.224-1.877-0.67-0.469-0.448-0.704-1.029-0.704-1.743h-0.602zM110.21 20.827c1.23 0 2.214-0.402 2.95-1.207 0.739-0.827 1.108-1.944 1.108-3.352v-0.402c0-1.408-0.369-2.514-1.108-3.319-0.736-0.827-1.72-1.24-2.949-1.24-1.23 0-2.213 0.411-2.95 1.24-0.738 0.805-1.108 1.911-1.108 3.319v0.402c0 1.408 0.37 2.525 1.108 3.352 0.738 0.805 1.72 1.207 2.95 1.207zM122.926 7.753h7.040v2.414h0.603c0.312-0.917 0.838-1.621 1.576-2.112 0.76-0.515 1.666-0.771 2.715-0.771 1.655 0 2.984 0.524 3.989 1.576 1.006 1.027 1.509 2.603 1.509 4.727v0.738l-4.358 0.402v-0.469c0-0.917-0.235-1.643-0.704-2.179-0.469-0.559-1.173-0.838-2.112-0.838s-1.676 0.323-2.213 0.972c-0.536 0.648-0.805 1.576-0.805 2.782v5.364h3.822v4.023h-11.465v-4.023h3.419v-8.582h-3.017v-4.023zM149.821 13.854h0.806l4.425-6.101h4.626v0.201l-5.364 7.61v0.603l5.9 8.012v0.201h-4.827l-4.76-6.504h-0.805v6.504h-4.224v-23.467h4.224v12.94zM168.506 17.442c0.021 0.491 0.134 0.949 0.335 1.374 0.222 0.402 0.514 0.759 0.872 1.073 0.379 0.29 0.805 0.524 1.274 0.704 0.491 0.155 1.006 0.235 1.542 0.235 1.050 0 1.854-0.18 2.414-0.536 0.558-0.381 0.96-0.827 1.207-1.341l3.621 2.011c-0.253 0.511-0.532 0.951-0.851 1.358l0.013-0.017c-0.401 0.482-0.865 0.893-1.384 1.226l-0.024 0.014c-0.559 0.379-1.253 0.692-2.078 0.939-0.805 0.244-1.755 0.369-2.85 0.369-1.253 0-2.392-0.201-3.419-0.603-1.046-0.409-1.939-1.001-2.682-1.743l0 0c-0.741-0.776-1.333-1.702-1.724-2.726l-0.019-0.056c-0.402-1.097-0.603-2.336-0.603-3.721v-0.201c0-1.274 0.212-2.438 0.637-3.486 0.44-1.046 1.052-1.937 1.809-2.681l0.001-0.001c0.74-0.718 1.62-1.297 2.594-1.69l0.054-0.019c0.955-0.403 2.066-0.637 3.232-0.637 0.019 0 0.038 0 0.056 0h-0.003c1.429 0 2.659 0.256 3.688 0.771 1.027 0.491 1.877 1.128 2.548 1.911 0.637 0.714 1.14 1.562 1.46 2.496l0.015 0.052c0.312 0.914 0.469 1.81 0.469 2.682v2.246h-12.203zM172.495 11.106c-1.073 0-1.944 0.279-2.615 0.838-0.67 0.536-1.106 1.161-1.307 1.877h7.845c-0.134-0.783-0.559-1.432-1.274-1.944-0.693-0.515-1.576-0.771-2.648-0.771zM184.841 7.753h4.928v-6.839h4.224v6.839h6.001v4.023h-6.001v7.576c0 0.67 0.302 1.006 0.905 1.006h4.492v4.023h-7.040c-0.759 0-1.385-0.247-1.877-0.738-0.469-0.492-0.704-1.118-0.704-1.877v-9.99h-4.928v-4.023zM209.19 31.086h-4.224v-23.333h4.224v2.414h0.603c0.429-0.894 1.097-1.616 1.922-2.1l0.023-0.012c0.849-0.515 1.934-0.771 3.252-0.771 0.983 0 1.911 0.189 2.782 0.57 0.894 0.379 1.666 0.939 2.313 1.676 0.67 0.715 1.196 1.597 1.576 2.648 0.402 1.050 0.603 2.246 0.603 3.587v0.603c0 1.362-0.19 2.569-0.57 3.621-0.364 1.033-0.888 1.924-1.551 2.693l0.009-0.011c-0.648 0.715-1.419 1.262-2.313 1.643-0.821 0.34-1.774 0.537-2.773 0.537-0.027 0-0.054-0-0.080-0l0.004 0c-0.76 0-1.419-0.079-1.978-0.235-0.56-0.153-1.051-0.371-1.498-0.651l0.023 0.014c-0.395-0.262-0.737-0.561-1.034-0.899l-0.005-0.006c-0.244-0.321-0.477-0.682-0.682-1.062l-0.022-0.044h-0.603v9.118zM213.615 20.827c1.318 0 2.38-0.402 3.185-1.207 0.827-0.827 1.24-1.944 1.24-3.352v-0.402c0-1.408-0.413-2.514-1.24-3.319-0.805-0.827-1.867-1.24-3.185-1.24s-2.391 0.424-3.218 1.274c-0.805 0.826-1.207 1.92-1.207 3.285v0.402c0 1.362 0.402 2.469 1.207 3.319 0.827 0.826 1.9 1.24 3.218 1.24zM226.264 20.358h5.833v-15.421h-5.632v-4.023h9.856v19.444h5.431v4.023h-15.488v-4.023zM257.652 21.967c-0.446 1.050-1.073 1.798-1.877 2.246-0.805 0.424-1.743 0.637-2.816 0.637-1.006 0-1.955-0.19-2.85-0.57-0.91-0.406-1.681-0.972-2.308-1.67l-0.006-0.006c-0.676-0.756-1.221-1.647-1.59-2.624l-0.019-0.058c-0.379-1.051-0.57-2.246-0.57-3.587v-0.536c0-1.32 0.19-2.504 0.57-3.554 0.381-1.051 0.894-1.944 1.542-2.682 0.649-0.738 1.397-1.297 2.246-1.676 0.806-0.381 1.752-0.604 2.749-0.604 0.012 0 0.024 0 0.036 0h-0.002c1.186 0 2.135 0.201 2.85 0.603 0.738 0.402 1.32 1.027 1.743 1.877h0.603v-2.011h4.224v11.599c0 0.67 0.302 1.006 0.905 1.006h0.637v4.023h-2.883c-0.759 0-1.385-0.224-1.877-0.67-0.469-0.448-0.704-1.029-0.704-1.743h-0.603zM253.897 20.827c1.23 0 2.213-0.402 2.95-1.207 0.738-0.827 1.106-1.944 1.106-3.352v-0.402c0-1.408-0.369-2.514-1.106-3.319-0.738-0.827-1.72-1.24-2.95-1.24-1.228 0-2.213 0.411-2.95 1.24-0.738 0.805-1.106 1.911-1.106 3.319v0.402c0 1.408 0.369 2.525 1.106 3.352 0.738 0.805 1.722 1.207 2.95 1.207zM283.643 18.28c-0.379 1.966-1.285 3.554-2.715 4.76-1.408 1.207-3.296 1.81-5.666 1.81-0.023 0-0.051 0-0.079 0-1.209 0-2.369-0.209-3.446-0.593l0.072 0.022c-1.064-0.383-1.979-0.941-2.755-1.648l0.007 0.006c-0.782-0.725-1.407-1.608-1.825-2.599l-0.019-0.049c-0.446-1.051-0.67-2.246-0.67-3.587v-0.402c0-1.341 0.224-2.548 0.67-3.621 0.443-1.073 1.067-1.987 1.843-2.748l0.001-0.001c0.778-0.737 1.703-1.328 2.725-1.724l0.057-0.019c0.999-0.382 2.154-0.604 3.361-0.604 0.021 0 0.041 0 0.062 0l-0.003-0c2.324 0 4.201 0.603 5.632 1.81 1.452 1.207 2.37 2.793 2.749 4.76l-4.157 1.073c-0.135-1.006-0.597-1.886-1.273-2.547l-0.001-0.001c-0.715-0.716-1.72-1.073-3.017-1.073-0.603 0-1.173 0.111-1.71 0.335-0.552 0.232-1.021 0.562-1.406 0.97l-0.002 0.002c-0.411 0.42-0.74 0.922-0.962 1.478l-0.011 0.030c-0.224 0.579-0.335 1.24-0.335 1.978v0.201c0 0.738 0.111 1.396 0.335 1.978 0.245 0.558 0.57 1.027 0.972 1.408 0.402 0.379 0.872 0.67 1.408 0.872 0.536 0.178 1.106 0.268 1.71 0.268 1.297 0 2.28-0.325 2.95-0.972 0.693-0.649 1.14-1.521 1.341-2.615l4.157 1.039zM291.666 17.442c0.023 0.491 0.134 0.949 0.335 1.374 0.224 0.402 0.514 0.759 0.872 1.073 0.379 0.29 0.805 0.524 1.274 0.704 0.492 0.155 1.006 0.235 1.542 0.235 1.050 0 1.854-0.18 2.414-0.536 0.559-0.381 0.962-0.827 1.207-1.341l3.621 2.011c-0.252 0.511-0.531 0.951-0.851 1.357l0.012-0.016c-0.401 0.482-0.865 0.893-1.384 1.226l-0.024 0.014c-0.559 0.379-1.251 0.692-2.078 0.939-0.805 0.244-1.754 0.369-2.85 0.369-1.251 0-2.391-0.201-3.419-0.603-1.046-0.41-1.939-1.001-2.682-1.743l0 0c-0.741-0.776-1.332-1.702-1.724-2.726l-0.019-0.056c-0.402-1.097-0.603-2.336-0.603-3.721v-0.201c0-1.274 0.212-2.438 0.637-3.486 0.44-1.046 1.052-1.937 1.809-2.681l0.001-0.001c0.74-0.718 1.62-1.297 2.594-1.69l0.054-0.019c0.956-0.403 2.067-0.637 3.233-0.637 0.019 0 0.037 0 0.056 0h-0.003c1.431 0 2.659 0.256 3.688 0.771 1.029 0.491 1.877 1.128 2.548 1.911 0.67 0.759 1.163 1.609 1.475 2.548 0.312 0.914 0.469 1.81 0.469 2.682v2.246h-12.203zM295.656 11.106c-1.073 0-1.944 0.279-2.615 0.838-0.67 0.536-1.106 1.161-1.307 1.877h7.845c-0.134-0.783-0.559-1.432-1.274-1.944-0.693-0.515-1.576-0.771-2.648-0.771z"></path>
        </symbol>
        <symbol id="icon-User" viewBox="0 0 32 32">
            <path fill="#fff" style="fill: var(--color1, #fff)" d="M16 5c-3.866 0-7 3.134-7 7s3.134 7 7 7v0c3.866 0 7-3.134 7-7s-3.134-7-7-7v0zM7 12c0-4.971 4.029-9 9-9s9 4.029 9 9v0c0 4.971-4.029 9-9 9s-9-4.029-9-9v0z"></path>
            <path fill="#fff" style="fill: var(--color1, #fff)" d="M16 20.998c-0 0-0.001 0-0.001 0-4.787 0-8.969 2.587-11.225 6.439l-0.033 0.061c-0.179 0.288-0.493 0.477-0.852 0.477-0.552 0-1-0.448-1-1 0-0.175 0.045-0.339 0.123-0.482l-0.003 0.005c2.641-4.516 7.467-7.502 12.99-7.502s10.349 2.986 12.952 7.431l0.038 0.071c0.093 0.149 0.148 0.33 0.148 0.523 0 0.552-0.448 1-1 1-0.378 0-0.706-0.209-0.877-0.518l-0.003-0.005c-2.289-3.914-6.471-6.501-11.257-6.501-0.001 0-0.002 0-0.002 0h0z"></path>
        </symbol>
    </defs>
</svg>
